<?xml version="1.0" encoding="UTF-8"?>
<svg version="1.1" xmlns="http://www.w3.org/2000/svg" width="520" height="520">
    <path d="M0 0 C1.45108658 0.00273422 1.45108658 0.00273422 2.93148804 0.00552368 C17.26676306 0.0509592 31.20686072 0.56943141 45.3125 3.3125 C46.19357422 3.4681543 47.07464844 3.62380859 47.98242188 3.78417969 C94.18244249 11.99788101 138.4958539 33.41009286 173.046875 65.23046875 C175.12142036 67.1369044 177.23515931 68.9801561 179.375 70.8125 C186.6295462 77.16386977 193.06847035 83.99618574 199.08203125 91.53125 C200.48781257 93.28416822 201.9196276 95.01681375 203.38671875 96.71875 C230.57358752 128.47864106 247.53145421 168.21410245 256.1875 208.8125 C256.37868408 209.70582031 256.56986816 210.59914062 256.7668457 211.51953125 C259.97083176 227.59909088 260.68917254 243.64444193 260.625 260 C260.62226578 261.45108658 260.62226578 261.45108658 260.61947632 262.93148804 C260.5740408 277.26676306 260.05556859 291.20686072 257.3125 305.3125 C257.1568457 306.19357422 257.00119141 307.07464844 256.84082031 307.98242188 C249.10124173 351.51562036 229.71828061 392.48857976 201.3125 426.3125 C200.88001953 426.83376465 200.44753906 427.3550293 200.00195312 427.89208984 C190.52158451 439.30039351 180.64198066 449.956847 168.98828125 459.1875 C167.2717491 460.55070217 165.57880131 461.94446233 163.91796875 463.375 C132.16825308 490.57475642 92.40886218 507.53188817 51.8125 516.1875 C50.91917969 516.37868408 50.02585937 516.56986816 49.10546875 516.7668457 C33.02590912 519.97083176 16.98055807 520.68917254 0.625 520.625 C-0.34239105 520.62317719 -1.3097821 520.62135437 -2.30648804 520.61947632 C-16.64176306 520.5740408 -30.58186072 520.05556859 -44.6875 517.3125 C-46.00911133 517.07901855 -46.00911133 517.07901855 -47.35742188 516.84082031 C-84.79665644 510.18466115 -121.10569191 494.90010149 -151.6875 472.3125 C-152.27354004 471.88195312 -152.85958008 471.45140625 -153.46337891 471.0078125 C-160.07412898 466.12055957 -166.37045375 460.96769501 -172.421875 455.39453125 C-174.49642036 453.4880956 -176.61015931 451.6448439 -178.75 449.8125 C-186.0045462 443.46113023 -192.44347035 436.62881426 -198.45703125 429.09375 C-199.86281257 427.34083178 -201.2946276 425.60818625 -202.76171875 423.90625 C-229.94858752 392.14635894 -246.90645421 352.41089755 -255.5625 311.8125 C-255.84927612 310.47251953 -255.84927612 310.47251953 -256.1418457 309.10546875 C-259.34583176 293.02590912 -260.06417254 276.98055807 -260 260.625 C-259.99817719 259.65760895 -259.99635437 258.6902179 -259.99447632 257.69351196 C-259.9490408 243.35823694 -259.43056859 229.41813928 -256.6875 215.3125 C-256.5318457 214.43142578 -256.37619141 213.55035156 -256.21582031 212.64257812 C-248.00211899 166.44255751 -226.58990714 122.1291461 -194.76953125 87.578125 C-192.8630956 85.50357964 -191.0198439 83.38984069 -189.1875 81.25 C-182.83613023 73.9954538 -176.00381426 67.55652965 -168.46875 61.54296875 C-166.71583178 60.13718743 -164.98318625 58.7053724 -163.28125 57.23828125 C-131.52135894 30.05141248 -91.78589755 13.09354579 -51.1875 4.4375 C-50.29417969 4.24631592 -49.40085938 4.05513184 -48.48046875 3.8581543 C-32.40090912 0.65416824 -16.35555807 -0.06417254 0 0 Z " fill="#ED1C25" transform="translate(259.6875,-0.3125)"/>
    <path d="M0 0 C2.05067051 2.48482147 3.56302953 5.09553255 5.15625 7.89453125 C7.55871525 11.94105641 10.46897843 15.41387385 13.49609375 19.00390625 C15 21 15 21 15 23 C15.66 23 16.32 23 17 23 C19.15305957 26.85756507 20.39253254 29.55129785 20 34 C19.01 34 18.02 34 17 34 C17 33.34 17 32.68 17 32 C14.36 32.33 11.72 32.66 9 33 C8.77828125 33.70640625 8.5565625 34.4128125 8.328125 35.140625 C6.70837911 38.62784263 4.40121726 41.03744466 1.75 43.75 C-4.9837618 50.87334548 -12.31754635 59.03897281 -13.3125 69.1875 C-13.18116696 71.93984487 -13.18116696 71.93984487 -11.9921875 73.90234375 C-10.52829912 76.99725736 -10.78627201 79.63733784 -10.90625 83.01171875 C-11.04051181 86.08907599 -11.04051181 86.08907599 -10.84375 89.51953125 C-10.81169278 93.28224742 -10.95957012 96.37841856 -12 100 C-14.49963 102.42415272 -16.95506745 103.78940006 -20.046875 105.37890625 C-23.07892131 107.0433232 -24.91946878 108.71932774 -27.25 111.25 C-33.72911168 118.0936352 -41.64914681 123.29759747 -49.37109375 128.640625 C-51.26016659 130.01050068 -51.26016659 130.01050068 -52.25 132.875 C-54.68068352 137.21550628 -57.47363488 139.03904368 -62 141 C-65.32401495 141.90396992 -68.6558292 142.63144192 -72.02734375 143.3359375 C-78.62309322 144.80936379 -83.46335832 148.64818495 -88.828125 152.57421875 C-91 154 -91 154 -93 154 C-93.6225472 158.82474082 -94.0356636 163.38627455 -93.875 168.25 C-93.81160678 172.31984498 -94.38427069 174.73033836 -97 178 C-92.90008387 181.22954287 -88.86171729 184.10739484 -84.25 186.5625 C-70.03448259 194.96952643 -59.04933529 211.34496574 -54.90234375 227.015625 C-53.77865341 230.7320727 -52.08824705 233.81121761 -50.05078125 237.09765625 C-48.96725984 239.05927308 -48.44341377 240.8121672 -48 243 C-47.01 243 -46.02 243 -45 243 C-44.62875 243.825 -44.2575 244.65 -43.875 245.5 C-41.95877533 249.07695272 -39.7530836 252.02721804 -37.20703125 255.16796875 C-36 257 -36 257 -36 260 C-35.34 260 -34.68 260 -34 260 C-19.75290906 283.53607475 -21.33792869 305.16942029 -23 332 C-21.68 332.66 -20.36 333.32 -19 334 C-17.79436121 348.38728956 -23.07376122 362.01505734 -30.9375 373.9375 C-34.68693154 377.68693154 -38.8474502 379.20631825 -44 380 C-45.8812778 379.99307609 -47.76295186 379.92520284 -49.640625 379.80859375 C-50.71183594 379.75123047 -51.78304687 379.69386719 -52.88671875 379.63476562 C-55.11356833 379.50415482 -57.3401454 379.36880415 -59.56640625 379.22851562 C-71.32345354 378.61602274 -78.69668348 380.92976322 -88.875 386.75 C-90.7265625 387.78645833 -92.578125 388.82291667 -94.4296875 389.859375 C-95.34089355 390.37677246 -96.25209961 390.89416992 -97.19091797 391.42724609 C-100.95043802 393.53213295 -104.76251174 395.5351266 -108.58203125 397.52880859 C-111.11238822 399.0683816 -113.03788316 400.78296587 -115.125 402.875 C-117.96102865 405.50181342 -119.73283068 406.49526102 -123.625 406.625 C-128.3700108 406.21594734 -132.28497677 404.92065102 -135.53125 401.28515625 C-141.74341075 391.61995934 -143.33435543 376.29485964 -141.4375 365.1875 C-139.79813086 359.25882257 -136.2895137 353.70334598 -132.3359375 349.03515625 C-130.64774922 346.46338405 -130.56687054 344.80937996 -130.5625 341.75 C-130.53349609 340.41195312 -130.53349609 340.41195312 -130.50390625 339.046875 C-130.97900861 336.1289235 -131.55622533 334.91795882 -133.01171875 332.453125 C-135.9778584 326.88178 -135.43345632 321.1598988 -135.25 315 C-135.23195313 313.84371094 -135.21390625 312.68742187 -135.1953125 311.49609375 C-135.1484876 308.66318725 -135.08292012 305.83204116 -135 303 C-135.6192334 302.81171631 -136.2384668 302.62343262 -136.87646484 302.42944336 C-137.68809082 302.17300049 -138.4997168 301.91655762 -139.3359375 301.65234375 C-140.1407959 301.40218506 -140.9456543 301.15202637 -141.77490234 300.89428711 C-144.95600575 299.61577254 -146.3942033 297.99262112 -148 295 C-147.92516792 292.45570942 -147.31169105 291.40145018 -145.765625 289.41015625 C-142.73900752 286.9928799 -139.59075468 287.54397013 -135.859375 287.6328125 C-132.32138129 288.08714503 -129.78587418 289.20030476 -126.75390625 291.02734375 C-124.85770262 292.07891325 -123.11448415 292.5585143 -121 293 C-121.09743929 287.05620317 -121.90994636 283.74066479 -125.375 278.875 C-130.6852746 271.13810402 -131.64212412 262.43912984 -132.4375 253.25 C-132.73312219 250.03227788 -132.73312219 250.03227788 -134.5 248.0625 C-140.98725087 245.30541838 -148.29288686 245.93164308 -155.203125 246.16015625 C-158.23367205 245.98661934 -160.30118641 245.37075066 -163 244 C-164.3125 241.875 -164.3125 241.875 -165 240 C-167.62187494 241.04874998 -168.79371361 241.64931313 -170.25 244.125 C-170.62125 245.053125 -170.62125 245.053125 -171 246 C-173.31 245.34 -175.62 244.68 -178 244 C-178 243.01 -178 242.02 -178 241 C-178.56847656 240.71640625 -179.13695312 240.4328125 -179.72265625 240.140625 C-180.84994141 239.57601562 -180.84994141 239.57601562 -182 239 C-183.08087891 238.46632813 -183.08087891 238.46632813 -184.18359375 237.921875 C-189.31033797 235.25632341 -192.9668562 232.99001077 -196 228 C-196.73477138 224.91517469 -196.52025826 223.27762702 -196 220 C-194 217.5 -194 217.5 -191 215 C-190.41863281 214.34773437 -189.83726562 213.69546875 -189.23828125 213.0234375 C-184.90220879 208.18603414 -181.49090633 205.98342189 -175.1015625 204.66796875 C-172.63117444 204.12377423 -172.63117444 204.12377423 -171 201 C-171.67546875 201.03480469 -172.3509375 201.06960937 -173.046875 201.10546875 C-173.93890625 201.13253906 -174.8309375 201.15960938 -175.75 201.1875 C-176.63171875 201.22230469 -177.5134375 201.25710937 -178.421875 201.29296875 C-181.5295862 200.93981975 -182.84960582 200.26092846 -185 198 C-185.69476444 193.44060837 -184.30995023 189.53991331 -182.0625 185.625 C-181.381875 184.75875 -180.70125 183.8925 -180 183 C-179.34 182.01 -178.68 181.02 -178 180 C-177.34 180 -176.68 180 -176 180 C-175.87625 179.319375 -175.7525 178.63875 -175.625 177.9375 C-175 175 -175 175 -173.6875 171.5625 C-172.66472336 167.97910029 -172.66472336 167.97910029 -174.3125 164.6875 C-178.64491866 160.35508134 -183.27244078 160.29342935 -189.1953125 159.65625 C-196.74010176 158.7459738 -201.53171905 157.37423189 -207 152 C-208.2375 150.8553125 -208.2375 150.8553125 -209.5 149.6875 C-211.74896144 145.65811075 -212.1574084 142.4876203 -211 138 C-206.83268247 130.69894765 -201.04743719 126.26800239 -194 122 C-192.24069826 120.80525031 -190.49074866 119.59662332 -188.75 118.375 C-187.90824219 117.78847656 -187.06648438 117.20195312 -186.19921875 116.59765625 C-183.89555305 114.98177024 -183.89555305 114.98177024 -181.5625 112.8125 C-178.21042745 110.44152185 -174.69536627 109.38901204 -170.83203125 108.0546875 C-157.81002895 103.20511423 -146.31970219 93.67643858 -136.8359375 83.73046875 C-135 82 -135 82 -133 82 C-133 81.01 -133 80.02 -133 79 C-132.34 79 -131.68 79 -131 79 C-130.79375 77.865625 -130.5875 76.73125 -130.375 75.5625 C-128.75983221 69.11328394 -125.02961062 64.07911332 -120.4375 59.375 C-118 58 -118 58 -115.625 57.8125 C-112.29024257 59.32108074 -110.38435242 61.45444746 -107.8828125 64.0859375 C-106.02566948 65.97390447 -104.133911 67.66349438 -102.0625 69.3125 C-101.47597656 69.78300781 -100.88945312 70.25351563 -100.28515625 70.73828125 C-94.4759101 73.94577955 -87.81698864 74.38960832 -81.3125 74.75 C-80.57966797 74.80542969 -79.84683594 74.86085938 -79.09179688 74.91796875 C-74.90076044 75.16739021 -71.68578343 75.10616196 -68 73 C-65.78125975 70.34604813 -65.78125975 70.34604813 -66.15234375 68.18359375 C-67.71710701 64.1527059 -70.21095918 60.62199454 -72.50390625 56.97265625 C-74.03881662 53.9228735 -74.43922331 52.34618809 -74 49 C-72.19828537 45.91134634 -71.4557601 45.15192003 -68 44 C-66.22362362 43.94066347 -64.44501916 43.93910429 -62.66796875 43.97265625 C-61.62189453 43.98490234 -60.57582031 43.99714844 -59.49804688 44.00976562 C-57.30266538 44.0447363 -55.1073444 44.0837553 -52.91210938 44.12695312 C-45.21211929 44.34116636 -45.21211929 44.34116636 -38 42 C-35.9097095 39.82999717 -35.9097095 39.82999717 -34.3125 37.1875 C-33.75175781 36.33542969 -33.19101562 35.48335937 -32.61328125 34.60546875 C-30.95891465 32.01613867 -30.95891465 32.01613867 -29.59765625 29.234375 C-28 27 -28 27 -25.6953125 26.28515625 C-24.84710938 26.21167969 -23.99890625 26.13820313 -23.125 26.0625 C-19.65846728 25.49994864 -17.35749249 25.06096208 -14.875 22.5 C-12.67581056 18.39484639 -12.82864895 16.06960923 -13.08203125 11.54296875 C-12.95201663 7.51251567 -11.32637297 4.25182791 -9 1 C-5.56317163 -0.71841419 -3.813247 -0.75014695 0 0 Z " fill="#000000" transform="translate(348,28)"/>
    <path d="M0 0 C1.45108658 0.00273422 1.45108658 0.00273422 2.93148804 0.00552368 C17.26676306 0.0509592 31.20686072 0.56943141 45.3125 3.3125 C46.19357422 3.4681543 47.07464844 3.62380859 47.98242188 3.78417969 C94.18244249 11.99788101 138.4958539 33.41009286 173.046875 65.23046875 C175.12142036 67.1369044 177.23515931 68.9801561 179.375 70.8125 C186.6295462 77.16386977 193.06847035 83.99618574 199.08203125 91.53125 C200.48781257 93.28416822 201.9196276 95.01681375 203.38671875 96.71875 C230.57358752 128.47864106 247.53145421 168.21410245 256.1875 208.8125 C256.37868408 209.70582031 256.56986816 210.59914062 256.7668457 211.51953125 C259.97083176 227.59909088 260.68917254 243.64444193 260.625 260 C260.62226578 261.45108658 260.62226578 261.45108658 260.61947632 262.93148804 C260.5740408 277.26676306 260.05556859 291.20686072 257.3125 305.3125 C257.1568457 306.19357422 257.00119141 307.07464844 256.84082031 307.98242188 C249.10124173 351.51562036 229.71828061 392.48857976 201.3125 426.3125 C200.88001953 426.83376465 200.44753906 427.3550293 200.00195312 427.89208984 C190.52158451 439.30039351 180.64198066 449.956847 168.98828125 459.1875 C167.2717491 460.55070217 165.57880131 461.94446233 163.91796875 463.375 C132.16825308 490.57475642 92.40886218 507.53188817 51.8125 516.1875 C50.91917969 516.37868408 50.02585937 516.56986816 49.10546875 516.7668457 C33.02590912 519.97083176 16.98055807 520.68917254 0.625 520.625 C-0.34239105 520.62317719 -1.3097821 520.62135437 -2.30648804 520.61947632 C-16.64176306 520.5740408 -30.58186072 520.05556859 -44.6875 517.3125 C-46.00911133 517.07901855 -46.00911133 517.07901855 -47.35742188 516.84082031 C-84.79665644 510.18466115 -121.10569191 494.90010149 -151.6875 472.3125 C-152.27354004 471.88195312 -152.85958008 471.45140625 -153.46337891 471.0078125 C-160.07412898 466.12055957 -166.37045375 460.96769501 -172.421875 455.39453125 C-174.49642036 453.4880956 -176.61015931 451.6448439 -178.75 449.8125 C-186.0045462 443.46113023 -192.44347035 436.62881426 -198.45703125 429.09375 C-199.86281257 427.34083178 -201.2946276 425.60818625 -202.76171875 423.90625 C-229.94858752 392.14635894 -246.90645421 352.41089755 -255.5625 311.8125 C-255.84927612 310.47251953 -255.84927612 310.47251953 -256.1418457 309.10546875 C-259.34583176 293.02590912 -260.06417254 276.98055807 -260 260.625 C-259.99817719 259.65760895 -259.99635437 258.6902179 -259.99447632 257.69351196 C-259.9490408 243.35823694 -259.43056859 229.41813928 -256.6875 215.3125 C-256.5318457 214.43142578 -256.37619141 213.55035156 -256.21582031 212.64257812 C-248.00211899 166.44255751 -226.58990714 122.1291461 -194.76953125 87.578125 C-192.8630956 85.50357964 -191.0198439 83.38984069 -189.1875 81.25 C-182.83613023 73.9954538 -176.00381426 67.55652965 -168.46875 61.54296875 C-166.71583178 60.13718743 -164.98318625 58.7053724 -163.28125 57.23828125 C-131.52135894 30.05141248 -91.78589755 13.09354579 -51.1875 4.4375 C-50.29417969 4.24631592 -49.40085938 4.05513184 -48.48046875 3.8581543 C-32.40090912 0.65416824 -16.35555807 -0.06417254 0 0 Z M-40.6875 7.3125 C-41.54359863 7.45171875 -42.39969727 7.5909375 -43.28173828 7.734375 C-78.53342617 13.67497542 -114.73082287 27.0382066 -143.6875 48.3125 C-144.5844458 48.9612207 -144.5844458 48.9612207 -145.49951172 49.62304688 C-165.83289428 64.35401422 -185.60862079 81.09064592 -200.6875 101.3125 C-201.15929687 101.93495605 -201.63109375 102.55741211 -202.1171875 103.19873047 C-229.38944726 139.2988579 -246.45955555 179.71269868 -253.6875 224.3125 C-253.86756592 225.42334961 -253.86756592 225.42334961 -254.05126953 226.55664062 C-263.2385991 286.74665671 -247.41873567 354.94192168 -211.6875 404.3125 C-211.03442871 405.21814697 -211.03442871 405.21814697 -210.36816406 406.14208984 C-195.64499258 426.45844967 -178.9117266 446.26439472 -158.6875 461.3125 C-158.02782227 461.80556641 -157.36814453 462.29863281 -156.68847656 462.80664062 C-147.32294571 469.77806889 -137.88207037 476.5932851 -127.6875 482.3125 C-126.511875 482.97499756 -126.511875 482.97499756 -125.3125 483.65087891 C-88.22699049 504.31142597 -46.55078844 516.53105472 -3.9375 516.5 C-2.76880371 516.49919434 -1.60010742 516.49838867 -0.39599609 516.49755859 C10.91098025 516.419495 22.08370365 515.60524275 33.3125 514.3125 C34.47007812 514.17972656 35.62765625 514.04695313 36.8203125 513.91015625 C40.00996574 513.47293224 43.15047903 512.9196361 46.3125 512.3125 C47.09963379 512.16474121 47.88676758 512.01698242 48.69775391 511.86474609 C82.44698521 505.41659657 116.31668253 492.57406439 144.3125 472.3125 C144.91626465 471.87711914 145.5200293 471.44173828 146.14208984 470.99316406 C166.45844967 456.26999258 186.26439472 439.5367266 201.3125 419.3125 C201.80556641 418.65282227 202.29863281 417.99314453 202.80664062 417.31347656 C224.4945256 388.17761685 240.43767468 356.62312389 249.3125 321.3125 C249.50682617 320.55114746 249.70115234 319.78979492 249.90136719 319.00537109 C266.17244386 253.76488478 253.27980054 183.7112927 219.0390625 126.45703125 C203.57561195 101.37234125 182.9701688 76.95337154 159.3125 59.3125 C158.69004395 58.84070312 158.06758789 58.36890625 157.42626953 57.8828125 C100.67353537 15.00830156 29.88590575 -4.26468235 -40.6875 7.3125 Z " fill="#FE0000" transform="translate(259.6875,-0.3125)"/>
    <path d="M0 0 C1.72265625 1.6328125 1.72265625 1.6328125 2.22265625 4.5078125 C1.58986441 8.46276152 0.66436172 9.91173494 -2.27734375 12.6328125 C-8.21742815 15.30324518 -13.3072979 16.13590566 -19.77734375 16.3203125 C-20.59976563 16.35447266 -21.4221875 16.38863281 -22.26953125 16.42382812 C-24.27168925 16.5053113 -26.27448943 16.57075825 -28.27734375 16.6328125 C-29.85190114 13.48369771 -29.62533493 11.11272434 -29.27734375 7.6328125 C-25.56616587 1.78489584 -21.52704639 0.01109444 -14.96484375 -2.1171875 C-9.9017481 -2.58817314 -4.44052744 -2.6658398 0 0 Z " fill="#000000" transform="translate(226.27734375,480.3671875)"/>
    <path d="M0 0 C0.598125 0.226875 1.19625 0.45375 1.8125 0.6875 C1.0625 5.4375 1.0625 5.4375 -1.1875 7.6875 C-3.3125 7.3125 -3.3125 7.3125 -5.1875 6.6875 C-5.1875 2.6875 -5.1875 2.6875 -3.9375 0.875 C-2.1875 -0.3125 -2.1875 -0.3125 0 0 Z " fill="#000000" transform="translate(407.1875,272.3125)"/>
    <path d="M0 0 C1.32 0.66 2.64 1.32 4 2 C3.67 2.99 3.34 3.98 3 5 C1.68 4.34 0.36 3.68 -1 3 C-0.67 2.01 -0.34 1.02 0 0 Z " fill="#000000" transform="translate(418,280)"/>
</svg>
