<?xml version="1.0" encoding="UTF-8"?>
<!DOCTYPE svg PUBLIC "-//W3C//DTD SVG 1.1//EN" "http://www.w3.org/Graphics/SVG/1.1/DTD/svg11.dtd">
<svg xmlns="http://www.w3.org/2000/svg" version="1.1" width="3840px" height="2160px" style="shape-rendering:geometricPrecision; text-rendering:geometricPrecision; image-rendering:optimizeQuality; fill-rule:evenodd; clip-rule:evenodd" xmlns:xlink="http://www.w3.org/1999/xlink">
<g><path style="opacity:0.996" fill="#0e1418" d="M 763.5,29.5 C 1008.17,29.3333 1252.83,29.5 1497.5,30C 1666.69,253.025 1835.69,476.191 2004.5,699.5C 2200.51,476.655 2396.18,253.488 2591.5,30C 2710.17,29.1667 2828.83,29.3333 2947.5,30.5C 2688.26,326.646 2429.26,622.979 2170.5,919.5C 2475.17,1322.5 2779.83,1725.5 3084.5,2128.5C 2845.83,2129.67 2607.17,2129.83 2368.5,2129C 2181.33,1884.5 1994.17,1640 1807,1395.5C 1593.17,1640 1379.33,1884.5 1165.5,2129C 1046.83,2129.67 928.167,2129.67 809.5,2129C 809.167,2128.67 808.833,2128.33 808.5,2128C 1085.83,1811.33 1363.17,1494.67 1640.5,1178C 1348.45,796.077 1056.29,414.243 764,32.5C 763.517,31.552 763.351,30.552 763.5,29.5 Z M 1180.5,232.5 C 1250.74,232.169 1320.9,232.502 1391,233.5C 1814.83,794 2238.67,1354.5 2662.5,1915C 2596.93,1915.83 2531.43,1915.66 2466,1914.5C 2037.26,1353.94 1608.76,793.272 1180.5,232.5 Z"/></g>
</svg>
